
<svg width="32" height="32" viewBox="0 0 32 32" fill="none" xmlns="http://www.w3.org/2000/svg">
  <path d="M25.3333 14.5333C24.4 14.5333 23.6 14.8 22.9333 15.2667L13.0667 9.33333C13.0667 9.2 13.0667 9.06667 13.0667 8.93333C13.0667 6.2 10.9333 4 8.13333 4C5.33333 4 3.2 6.2 3.2 8.93333C3.2 11.6667 5.33333 13.8667 8.13333 13.8667C9.06667 13.8667 9.86667 13.6 10.5333 13.1333L20.4 19.0667C20.4 19.2 20.4 19.3333 20.4 19.4667C20.4 22.2 22.5333 24.4 25.3333 24.4C28.1333 24.4 30.2667 22.2 30.2667 19.4667C30.2667 16.7333 28.1333 14.5333 25.3333 14.5333Z" fill="#8A3FFC"/>
  <path d="M25.3335 21.7333C24.0002 21.7333 22.9335 20.6667 22.9335 19.3333C22.9335 18 24.0002 16.9333 25.3335 16.9333C26.6668 16.9333 27.7335 18 27.7335 19.3333C27.7335 20.6667 26.6668 21.7333 25.3335 21.7333Z" fill="#0CEAD9"/>
  <path d="M8.13346 11.5999C6.80013 11.5999 5.73346 10.5333 5.73346 9.19992C5.73346 7.86659 6.80013 6.79992 8.13346 6.79992C9.4668 6.79992 10.5335 7.86659 10.5335 9.19992C10.5335 10.5333 9.4668 11.5999 8.13346 11.5999Z" fill="#0CEAD9"/>
</svg>
